<svg xmlns="http://www.w3.org/2000/svg" viewBox="0 0 200 220" role="img" aria-label="Tengo Derechos">
  <title>Tengo Derechos</title>
  <path d="M100 6 L18 30 L18 110 C18 158 56 196 100 214 C144 196 182 158 182 110 L182 30 Z" fill="#1f2c44"/>
  <path d="M100 26 L40 44 L40 108 C40 146 68 178 100 192 C132 178 160 146 160 108 L160 44 Z" fill="#b4571f"/>
  <g transform="translate(108 50) rotate(8)">
    <rect width="42" height="52" rx="4" fill="#fbf7ef"/>
    <rect x="6" y="10" width="22" height="3" rx="1.5" fill="#1f2c44"/>
    <rect x="6" y="18" width="30" height="3" rx="1.5" fill="#1f2c44"/>
    <rect x="6" y="26" width="22" height="3" rx="1.5" fill="#1f2c44"/>
    <rect x="6" y="34" width="26" height="3" rx="1.5" fill="#1f2c44"/>
  </g>
  <g transform="translate(150 38)" fill="none" stroke="#b4571f" stroke-width="6" stroke-linecap="round">
    <path d="M0 14 A14 14 0 0 1 14 0"/>
    <path d="M0 26 A26 26 0 0 1 26 0" opacity="0.55"/>
  </g>
  <g transform="translate(56 76)">
    <circle cx="38" cy="14" r="14" fill="#fbf7ef"/>
    <path d="M10 80 C10 50 24 34 38 34 C50 34 64 44 64 60 L64 96 C64 110 50 116 38 116 C26 116 10 110 10 96 Z" fill="#fbf7ef"/>
    <circle cx="46" cy="58" r="9" fill="#1f2c44" opacity="0.9"/>
    <path d="M30 70 C30 64 36 60 44 60 C54 60 60 66 60 76 L60 92 C60 100 54 102 46 102 C36 102 30 100 30 92 Z" fill="#1f2c44" opacity="0.9"/>
  </g>
</svg>
